<?xml version="1.0" standalone="no"?>
<!DOCTYPE svg PUBLIC "-//W3C//DTD SVG 20010904//EN"
 "http://www.w3.org/TR/2001/REC-SVG-20010904/DTD/svg10.dtd">
<svg version="1.0" xmlns="http://www.w3.org/2000/svg"
 width="800.000000pt" height="967.000000pt" viewBox="0 0 800.000000 967.000000"
 preserveAspectRatio="xMidYMid meet">

<g transform="translate(0.000000,967.000000) scale(0.100000,-0.100000)"
fill="#000000" stroke="none">
<path d="M3953 9502 c-127 -175 -368 -424 -575 -593 -665 -543 -1426 -802
-2226 -759 -292 16 -560 63 -846 150 -88 26 -162 47 -163 46 -4 -4 -53 -443
-65 -581 -17 -202 -17 -981 0 -1180 62 -723 195 -1358 420 -2000 501 -1429
1435 -2774 2692 -3874 236 -207 595 -493 778 -620 l32 -22 93 67 c711 520
1399 1176 1951 1863 656 815 1160 1719 1476 2648 220 647 343 1249 402 1968
16 197 16 913 0 1115 -15 183 -61 600 -67 610 -3 5 -47 -5 -97 -21 -227 -71
-485 -127 -718 -155 -161 -19 -526 -22 -680 -5 -620 68 -1186 308 -1710 725
-159 127 -450 418 -564 564 -48 61 -89 112 -90 112 0 0 -20 -26 -43 -58z m112
-503 c135 -162 387 -381 620 -538 475 -322 987 -512 1580 -588 198 -25 669
-25 880 1 136 16 394 59 437 72 22 7 24 -2 44 -211 34 -373 29 -982 -12 -1385
-127 -1244 -581 -2462 -1332 -3575 -565 -838 -1303 -1613 -2122 -2229 -85 -64
-158 -116 -161 -116 -11 0 -344 255 -484 370 -487 401 -964 885 -1361 1380
-632 788 -1107 1643 -1412 2541 -293 862 -420 1710 -391 2616 7 216 32 567 43
599 3 7 54 2 158 -17 443 -80 885 -90 1297 -29 690 101 1347 414 1866 888 66
60 156 151 200 201 43 50 82 91 85 91 3 0 33 -32 65 -71z"/>
<path d="M3880 8698 c-812 -783 -1934 -1136 -3125 -982 -66 8 -141 18 -166 21
l-46 5 -7 -93 c-28 -371 -25 -839 9 -1202 14 -153 47 -423 61 -489 l6 -28
3388 0 3387 0 16 103 c51 328 77 685 77 1060 0 242 -13 578 -25 633 -5 21 -6
21 -82 8 -385 -65 -851 -70 -1248 -13 -748 107 -1472 459 -2006 977 -64 61
-118 112 -120 112 -2 -1 -56 -51 -119 -112z m-1765 -1282 c97 -26 201 -82 268
-146 44 -41 59 -62 52 -69 -6 -6 -66 -44 -133 -85 l-121 -75 -21 29 c-34 48
-120 83 -217 88 -109 6 -156 -12 -218 -80 -58 -64 -86 -150 -87 -264 -1 -172
49 -282 154 -339 120 -66 320 -18 376 90 l17 34 128 -79 c71 -43 131 -81 134
-84 10 -10 -38 -75 -89 -121 -177 -159 -506 -192 -731 -73 -93 50 -186 147
-236 249 -56 114 -72 183 -72 310 -1 257 118 467 324 569 45 22 111 47 147 55
79 18 239 13 325 -9z m3736 -336 c129 -493 121 -466 129 -444 4 10 51 191 106
402 l98 382 238 0 238 0 -2 -612 -3 -613 -150 0 -150 0 -5 449 -5 450 -119
-430 c-65 -236 -122 -439 -127 -451 -8 -22 -13 -23 -128 -23 -105 0 -120 2
-125 18 -3 9 -59 210 -125 446 -66 236 -123 431 -126 434 -3 3 -5 -198 -5
-446 l0 -452 -150 0 -150 0 0 615 0 615 237 -2 236 -3 88 -335z m-1584 -270
c122 -327 223 -601 223 -607 0 -10 -39 -13 -163 -13 l-164 0 -38 110 -37 110
-212 0 -211 0 -39 -110 -38 -110 -165 0 c-128 0 -164 3 -160 13 2 6 105 281
228 610 l224 597 165 -2 165 -3 222 -595z"/>
<path d="M3808 6858 l-66 -203 130 -3 c72 -1 132 -1 134 1 4 3 -125 407 -129
407 -2 0 -33 -91 -69 -202z"/>
<path d="M656 5683 c2 -10 18 -81 34 -158 187 -854 573 -1751 1104 -2560 l86
-130 0 1433 0 1432 -614 0 c-580 0 -614 -1 -610 -17z"/>
<path d="M2110 4107 l0 -1592 83 -107 c280 -361 724 -851 958 -1059 l69 -61 0
2206 0 2206 -555 0 -555 0 0 -1593z"/>
<path d="M3450 3390 l0 -2311 37 -32 c73 -65 291 -241 400 -324 l112 -85 128
98 c145 111 340 269 396 322 l37 36 0 2303 0 2303 -555 0 -555 0 0 -2310z"/>
<path d="M4790 3499 l0 -2201 120 112 c257 240 618 643 898 1002 l92 117 0
1586 0 1585 -555 0 -555 0 0 -2201z"/>
<path d="M6130 4278 l0 -1423 86 130 c459 697 819 1492 1022 2260 45 170 102
415 102 439 0 15 -55 16 -605 16 l-605 0 0 -1422z"/>
</g>
</svg>
